<?xml version="1.0" encoding="utf-8"?>
<!-- Generator: Adobe Illustrator 22.0.1, SVG Export Plug-In . SVG Version: 6.00 Build 0)  -->
<svg version="1.1" id="Layer_1" xmlns="http://www.w3.org/2000/svg" xmlns:xlink="http://www.w3.org/1999/xlink" x="0px" y="0px"
	 viewBox="0 0 81.9 107.4" style="enable-background:new 0 0 81.9 107.4;" xml:space="preserve">
<style type="text/css">
	.st0{fill:#AB9531;}
	.st1{fill:#FFFFFF;}
</style>
<path class="st0" d="M54.7,26.7c-3.9,0-3.9,0-3.9,4c0,21.5,0,43,0,64.4c0,1.1,0.2,2.3-0.1,3.3c-0.3,0.9-1.3,2-2.1,2.1
	c-5,0.2-10,0.1-15,0.1c-1.5,0-2.3-0.8-2.4-2.3c0-0.9,0-1.7,0-2.6c0-15.6,0.1-31.2-0.1-46.8c0-2.9,0.8-5,2.9-6.9
	c5-4.7,9.7-9.6,14.6-14.4c-0.2-0.3-0.3-0.6-0.5-0.9"/>
<path class="st1" d="M48.1,26.7c-1.4,0-2.7,0-4.1,0c-11.9,0-23.7,0-35.6,0c-4.4,0-4.5-0.1-4.5-4.3c0-3.2,0-6.5,0-9.7
	c0-5.8,0-5.8,5.7-5.8c20.9,0,41.7,0,62.6,0c0.9,0,1.8,0,2.6,0c2.2-0.1,3.1,0.9,3.1,3.1c-0.1,4.5-0.1,9,0,13.5c0.1,2.4-1,3.3-3.3,3.3
	c-6.6-0.1-13.2,0-19.9,0"/>
</svg>
