<?xml version="1.0" encoding="utf-8"?>
<!-- Generator: Adobe Illustrator 22.0.1, SVG Export Plug-In . SVG Version: 6.00 Build 0)  -->
<svg version="1.1" id="Layer_1" xmlns="http://www.w3.org/2000/svg" xmlns:xlink="http://www.w3.org/1999/xlink" x="0px" y="0px"
	 viewBox="0 0 1024 1024" style="enable-background:new 0 0 1024 1024;" xml:space="preserve">
<style type="text/css">
	.st0{fill:#AC941F;}
</style>
<path class="st0" d="M819.2,729.1v28.7c0,33.8-27.6,61.4-61.4,61.4H266.2c-33.8,0-61.4-27.6-61.4-61.4v-28.7
	c0-74.8,87-119.8,169-155.6c3.1-1,5.1-2,8.2-4.1c6.1-3.1,13.3-3.1,19.5,1c32.8,21.5,70.7,33.8,110.6,33.8s77.8-12.3,110.6-32.8
	c6.1-4.1,13.3-4.1,19.5-1c3.1,1,5.1,2,8.2,4.1C732.2,609.3,819.2,654.3,819.2,729.1z"/>
<path class="st0" d="M359.4,373.8c0,93.3,68.3,169,152.6,169s152.6-75.6,152.6-169c0-93.3-68.3-169-152.6-169
	C427.8,204.8,359.4,280.4,359.4,373.8C359.4,373.7,359.4,373.7,359.4,373.8L359.4,373.8z"/>
</svg>
