<?xml version="1.0" encoding="utf-8"?>
<!-- Generator: Adobe Illustrator 22.0.1, SVG Export Plug-In . SVG Version: 6.00 Build 0)  -->
<svg version="1.1" id="Layer_1" xmlns="http://www.w3.org/2000/svg" xmlns:xlink="http://www.w3.org/1999/xlink" x="0px" y="0px"
	 viewBox="0 0 493.9 107.4" style="enable-background:new 0 0 493.9 107.4;" xml:space="preserve">
<style type="text/css">
	.st0{fill:#FFFFFF;}
	.st1{fill:#AB9531;}
</style>
<path class="st0" d="M387.8,31.2c0-6.6,0-12.7,0-18.8c0-1.2,0-2.5,0-3.7c0-1.7,0.9-2.5,2.6-2.5c4.9,0,9.7,0,14.6,0
	c1.9,0,2.7,1,2.7,2.8c0,0.9,0,1.7,0,2.6c0,27.7,0,55.4,0,83.2c0,0.9,0,1.7,0,2.6c0,1.8-0.8,2.8-2.7,2.8c-4.9,0-9.7,0-14.6,0
	c-1.9,0-2.6-1.1-2.6-2.9c0-1.5,0-2.9,0-4.4c-3.5,2-6.5,4.3-9.9,5.7c-19,7.5-39.3-2.2-45.9-22.1c-4.8-14.4-3.4-28.1,6-40.4
	c11.2-14.7,34-17.6,47.8-6.1C386.3,30.3,386.8,30.6,387.8,31.2z M368.3,81.8c0-0.2,0.1-0.4,0.1-0.6c1.9,0,3.7,0,5.6,0
	c7.8-0.2,13.2-5.2,13.6-13c0.2-4.2,0.2-8.5,0-12.7c-0.4-7.2-4.5-11.9-11.7-13c-4.7-0.7-9.5-0.8-14.2-0.3c-5.3,0.5-9.2,3.5-11.6,8.4
	c-3.2,6.7-3,13.5-0.8,20.4c1.3,4,3.8,7.3,7.7,8.7C360.7,80.8,364.6,81.1,368.3,81.8z"/>
<path class="st0" d="M130.3,92.9c-1.3,0.9-2,1.3-2.7,1.8c-13.8,10.2-33.7,8-45.2-4.9c-12.7-14.4-13.7-37.9-2.3-53.1
	c11.3-15.1,34.4-18.6,48.6-6.6c0.4,0.3,0.8,0.5,1.3,0.9c0.2-0.5,0.4-0.8,0.4-1.2c0.1-5.7-1.3-6.4,6.4-6.3c3.4,0,6.7-0.1,10.1,0
	c3,0.1,3.4,0.5,3.4,3.6c0,9.2,0,18.5,0,27.7c0,13.6,0,27.2,0,40.8c0,4.4-0.2,4.6-4.7,4.6c-3.6,0-7.2,0-10.9,0
	c-4.1,0-4.2-0.2-4.4-4.2C130.5,95.2,130.4,94.4,130.3,92.9z M110.9,81.7c0-0.2,0.1-0.4,0.1-0.6c2,0,4,0,6,0
	c7.6-0.2,13-5.2,13.4-12.9c0.3-4.4,0.3-8.8,0-13.1c-0.5-7-4.5-11.6-11.5-12.7c-3.8-0.6-7.7-0.5-11.6-0.5c-8.1,0-14,4.7-15.9,12.6
	C90,60,90.3,65.4,92.1,70.7c1.4,4.3,4.1,7.7,8.3,9.1C103.7,81,107.4,81.1,110.9,81.7z"/>
<path class="st0" d="M303.3,100.3c-4.8,0-9.7-0.3-14.5,0.1c-5,0.4-8.3-1.3-11.2-5.5c-5.7-8.2-12-16-18-23.9
	c-0.7-0.9-1.4-1.7-2.6-3.1c-3,3.1-5.9,5.9-8.5,8.9c-0.7,0.8-0.6,2.4-0.6,3.6c-0.1,5.4,0,10.7,0,16.1c0,3.3-0.4,3.7-3.7,3.7
	c-4.2,0.1-8.5,0.1-12.7,0c-3.1-0.1-3.4-0.4-3.4-3.5c-0.1-3,0-6,0-9c0-25.1,0-50.2,0-75.3c0-1.1,0-2.2,0-3.4c0-1.8,0.7-2.8,2.6-2.8
	c4.9,0,9.7,0,14.6,0c1.7,0,2.5,0.9,2.6,2.5c0,1,0,2,0,3c0,11.7,0,23.5,0,35.2c0,1.4,0,2.7,0,4.9c1.4-1.3,2.4-2,3.2-2.8
	c7.5-7.5,15-15,22.4-22.6c2-2.1,4.1-2.9,6.9-2.9c5,0.2,10,0,15,0.1c1.2,0,2.4,0.2,3.8,0.7c-2.7,3.9-6.1,6.9-9.2,10.1
	c-3.2,3.3-6.5,6.6-9.8,9.8s-6.7,6.3-10.4,9.8c11.6,15.4,22.9,30.2,34.1,45.1C303.8,99.5,303.6,99.9,303.3,100.3z"/>
<path class="st0" d="M220.8,48.6c-5.3,0-10.4,0-15.5,0c-1.8,0-2.4-1-2.7-2.5c-0.4-2.7-2.3-3.7-4.7-4.2c-7-1.4-13.9-1-20.9,0.1
	c-1,0.1-2.4,1.4-2.5,2.2c-0.2,1.1,0.5,2.6,1.3,3.5c0.6,0.7,2,1,3.1,1.2c5.7,1.2,11.5,2.3,17.2,3.6c4.2,1,8.5,2.1,12.6,3.6
	c9.7,3.7,14.3,11.5,13.6,22.2c-0.7,10.4-6.6,18.1-16.3,20.4c-11.8,2.8-23.7,3.6-35.4-0.6c-8.8-3.2-14.8-11.8-14.7-21.1
	c0-3.1,0.2-3.4,3.4-3.5c3.9-0.1,7.7,0.1,11.6,0c2.2-0.1,3.1,0.8,3.4,3c0.4,3.2,1.4,4.3,4.5,4.4c6.6,0.2,13.2,0.2,19.9,0
	c1.6-0.1,3.5-1,4.5-2.2c1.9-2.3,0.4-5.6-3.1-6.6c-3.7-1.1-7.6-1.7-11.3-2.4c-5.1-1.1-10.3-1.9-15.4-3.2c-3-0.8-5.9-2-8.6-3.6
	c-5.4-3.2-8.4-8.1-8.9-14.4c-0.2-2.4-0.3-4.8,0-7.1c0.8-7.1,4.2-12.4,11-15.2c8.4-3.4,17.3-3.7,26.2-3.1c6.4,0.4,12.6,1.5,18.2,5.1
	C217.8,32.1,221.8,40.3,220.8,48.6z"/>
<path class="st0" d="M451.7,101.2c-6-0.2-11.7-1-17.3-3.2c-8.8-3.5-15.2-9.7-18.3-18.6c-4.1-11.7-4.6-23.5,0-35.2
	c5.1-12.9,15.4-19.1,28.8-20.9c5.9-0.8,11.7-0.5,17.5,0.6c15.2,2.9,25.4,13.3,27.8,28.5c1.1,7.1,1.1,14.2-0.6,21.2
	c-3.4,14.5-13.9,24.3-28.6,26.5C457.9,100.7,454.8,100.9,451.7,101.2z M451.8,81.3c0-0.1,0-0.1,0-0.2c1.4,0,2.8-0.1,4.1,0
	c7.6,0.7,13.5-4.7,15.5-11.5c1.7-5.7,1.6-11.4-0.3-16.9c-2-5.9-5.9-10-12.3-10.7c-4.6-0.5-9.3-0.5-13.8,0
	c-6.1,0.7-10.2,4.5-12.2,10.3c-2.1,6.1-1.9,12.3,0,18.4c1.6,5,5,8.5,10,9.8C445.7,81.4,448.8,81.1,451.8,81.3z"/>
<path class="st1" d="M53.8,26.1c-3.9,0-3.9,0-3.9,4c0,21.5,0,43,0,64.4c0,1.1,0.2,2.3-0.1,3.3c-0.3,0.9-1.3,2-2.1,2.1
	c-5,0.2-10,0.1-15,0.1c-1.5,0-2.3-0.8-2.4-2.3c0-0.9,0-1.7,0-2.6c0-15.6,0.1-31.2-0.1-46.8c0-2.9,0.8-5,2.9-6.9
	c5-4.7,9.7-9.6,14.6-14.4c-0.2-0.3-0.3-0.6-0.5-0.9"/>
<path class="st0" d="M47.2,26.1c-1.4,0-2.7,0-4.1,0c-11.9,0-23.7,0-35.6,0C3.1,26.1,3,26,3,21.8c0-3.2,0-6.5,0-9.7
	c0-5.8,0-5.8,5.7-5.8c20.9,0,41.7,0,62.6,0c0.9,0,1.8,0,2.6,0c2.2-0.2,3.1,0.8,3.1,3c-0.1,4.5-0.1,9,0,13.5c0.1,2.4-1,3.3-3.3,3.3
	c-6.6-0.1-13.2,0-19.9,0"/>
<path class="st0" d="M304.4,61.7c0-11.4,0-22.7,0-34.1c0-3.9,0.2-4.1,4-4.1c4.1-0.1,8.2,0,12.4,0c2.3,0,3.5,0.7,3.5,3.2
	c-0.2,16-0.3,31.9-0.4,47.9c-0.1,7.1-0.1,14.2-0.1,21.3c0,4.2-0.2,4.4-4.5,4.4c-3.7,0-7.5,0.1-11.2,0c-3.3-0.1-3.6-0.3-3.6-3.7
	C304.4,84.9,304.4,73.3,304.4,61.7z"/>
<path class="st1" d="M314.2,18.4c-2.2,0-4.5,0-6.7,0c-1.8,0-2.8-0.7-2.8-2.6c0-2.2,0-4.5,0-6.7c0-1.8,0.8-2.8,2.7-2.8
	c4.7,0,9.5,0,14.2,0c1.9,0,2.5,1.1,2.7,2.8c0.9,9,0.7,9.3-8.2,9.3C315.4,18.4,314.8,18.4,314.2,18.4L314.2,18.4z"/>
</svg>
